<?xml version="1.0" encoding="utf-8"?>
<!-- Generator: Adobe Illustrator 17.0.0, SVG Export Plug-In . SVG Version: 6.00 Build 0)  -->
<!DOCTYPE svg PUBLIC "-//W3C//DTD SVG 1.1//EN" "http://www.w3.org/Graphics/SVG/1.1/DTD/svg11.dtd">
<svg version="1.1" id="Layer_1" xmlns="http://www.w3.org/2000/svg" xmlns:xlink="http://www.w3.org/1999/xlink" x="0px" y="0px"
	 width="100.001px" height="90.338px" viewBox="0 0 100.001 90.338" enable-background="new 0 0 100.001 90.338"
	 xml:space="preserve">
<path fill="#FFFFFF" d="M98.2,17.305c-2.493-6.252-7.495-11.51-14.416-14.766C77.667-0.34,71.076-0.686,65.085,1.073
	C59.096,2.832,53.71,7.626,50,13.168C46.291,7.626,40.905,2.832,34.916,1.073S22.334-0.34,16.217,2.539
	C9.297,5.794,4.295,11.053,1.801,17.305c-2.493,6.252-2.504,13.511,0.638,20.73C9.161,53.477,49.787,89.719,50,90.338
	c0.213-0.619,40.84-36.861,47.561-52.303C100.705,30.815,100.693,23.557,98.2,17.305z"/>
</svg>
